<svg width="16" height="14" viewBox="0 0 16 14" fill="none" xmlns="http://www.w3.org/2000/svg">
<path d="M1.20523 8.13874C1.26776 8.14889 1.33105 8.15357 1.39437 8.15275L12.1764 8.15275L11.9413 8.2621C11.7115 8.37087 11.5024 8.51891 11.3234 8.6995L8.29989 11.723C7.90168 12.1032 7.83477 12.7147 8.14133 13.1719C8.49812 13.6592 9.18234 13.765 9.66964 13.4082C9.709 13.3794 9.74642 13.3479 9.78159 13.3141L15.2491 7.84657C15.6764 7.41976 15.6768 6.7274 15.25 6.30012C15.2497 6.29984 15.2494 6.29953 15.2491 6.29926L9.78159 0.831734C9.35396 0.405301 8.6616 0.406257 8.23513 0.833886C8.20157 0.867545 8.17024 0.903358 8.14133 0.941083C7.83477 1.39834 7.90168 2.00985 8.29989 2.38998L11.318 5.41899C11.4784 5.5796 11.6629 5.71427 11.8647 5.81812L12.1928 5.96574L1.45454 5.96574C0.895934 5.945 0.405839 6.33521 0.300896 6.88429C0.204223 7.48042 0.609094 8.04203 1.20523 8.13874Z" fill="#2C5619"/>
</svg>
