<svg width="72" height="72" viewBox="0 0 72 72" fill="none" xmlns="http://www.w3.org/2000/svg">
<path fill-rule="evenodd" clip-rule="evenodd" d="M48.3478 16.5044H23.6528C19.7116 16.5044 16.5044 19.7114 16.5044 23.6528V48.3476C16.5044 52.2896 19.7116 55.4967 23.6528 55.4967H48.3478C52.2896 55.4967 55.4967 52.2896 55.4967 48.3476V23.6528C55.4967 19.7116 52.2896 16.5044 48.3478 16.5044ZM35.9998 48.8364C28.9226 48.8364 23.164 43.0777 23.164 35.9998C23.164 28.9226 28.9226 23.164 35.9998 23.164C43.0777 23.164 48.8364 28.9226 48.8364 35.9998C48.8364 43.0777 43.0777 48.8364 35.9998 48.8364ZM49.2494 25.8183C47.5738 25.8183 46.2113 24.4558 46.2113 22.7813C46.2113 21.1065 47.5738 19.744 49.2494 19.744C50.924 19.744 52.2864 21.1065 52.2864 22.7813C52.2864 24.456 50.924 25.8183 49.2494 25.8183Z" fill="white"/>
<path fill-rule="evenodd" clip-rule="evenodd" d="M35.9996 28.5884C31.9139 28.5884 28.5869 31.9138 28.5869 35.9994C28.5869 40.0866 31.9139 43.4129 35.9996 43.4129C40.0867 43.4129 43.4114 40.0866 43.4114 35.9994C43.4114 31.9138 40.0867 28.5884 35.9996 28.5884Z" fill="white"/>
<path fill-rule="evenodd" clip-rule="evenodd" d="M0 0V72H72V0H0ZM60.9199 48.3474C60.9199 55.281 55.281 60.9199 48.3476 60.9199H23.6526C16.7198 60.9199 11.0801 55.281 11.0801 48.3474V23.6526C11.0801 16.7198 16.7198 11.0801 23.6526 11.0801H48.3476C55.281 11.0801 60.9199 16.7198 60.9199 23.6526V48.3474Z" fill="white"/>
</svg>
