<svg width="51" height="51" viewBox="0 0 51 51" fill="none" xmlns="http://www.w3.org/2000/svg">
<path d="M46.5176 6.07617H4.48242C2.0139 6.07617 0 8.08788 0 10.5586V40.4414C0 42.9038 2.00494 44.9238 4.48242 44.9238H46.5176C48.9799 44.9238 51 42.9189 51 40.4414V10.5586C51 8.09625 48.9951 6.07617 46.5176 6.07617ZM45.8986 9.06445L25.595 29.3681L5.11584 9.06445H45.8986ZM2.98828 39.8226V11.1631L17.3797 25.4312L2.98828 39.8226ZM5.10129 41.9355L19.5018 27.535L24.5477 32.5376C25.1318 33.1167 26.0744 33.1148 26.6562 32.533L31.5762 27.613L45.8987 41.9355H5.10129ZM48.0117 39.8225L33.6892 25.5L48.0117 11.1774V39.8225Z" fill="white"/>
</svg>
