<svg width="71" height="71" viewBox="0 0 71 71" fill="none" xmlns="http://www.w3.org/2000/svg">
<path d="M43.4984 51.4019C43.5924 49.8421 43.1496 48.474 42.211 47.4572C41.28 46.4487 39.9523 45.8823 38.3596 45.8186L33.3849 45.6117C33.3029 45.2926 33.2127 44.981 33.13 44.6776C33.0051 44.2462 32.8872 43.8387 32.8153 43.4647C32.1164 39.6146 32.0892 35.5544 32.7357 31.0395C33.0851 28.8186 33.5398 27.1231 34.1851 25.6011C35.4207 25.7058 36.6355 25.7386 37.8106 25.7777C38.2522 25.7953 38.7019 25.8054 39.1434 25.8231C42.4549 25.9555 44.6852 23.8967 44.8176 20.5852L44.9898 16.2803C45.0093 15.7915 45.0295 15.2869 45.0648 14.7987C45.119 13.8374 45.167 12.8364 45.1669 11.8493C45.2199 10.3273 44.7601 8.99011 43.8366 7.98974C42.9132 6.98938 41.6019 6.40784 40.0578 6.31451C40.042 6.31388 40.042 6.31388 40.0262 6.31325L34.6402 6.12156C32.6218 6.04085 30.7901 6.62305 29.1849 7.86187C26.6089 9.87526 25.0295 12.6392 24.0696 14.5277C21.7125 19.1638 20.2233 24.2136 19.3971 30.4587C18.424 38.0088 19.0264 45.4561 21.1969 52.5949C22.044 55.3059 23.31 58.7996 25.7258 61.7787C25.8766 61.9584 26.0349 62.1464 26.1863 62.3104C27.9347 64.2045 30.0837 65.167 32.5872 65.1645C32.6112 65.1575 32.6345 65.1664 32.6585 65.1594C33.5686 65.1089 34.4902 65.1695 35.4672 65.2243C36.1289 65.2666 36.8145 65.3019 37.509 65.3139C39.1029 65.346 40.4804 64.8641 41.489 63.9331C42.5058 62.9946 43.0804 61.6592 43.1358 60.0742L43.4984 51.4019ZM37.5739 62.3077C37.5663 62.2995 37.5581 62.3071 37.5739 62.3077C36.9343 62.3058 36.3199 62.2655 35.6501 62.2308C34.6497 62.1671 33.6172 62.1179 32.5493 62.1621C30.8993 62.1514 29.5803 61.5616 28.3996 60.2825C28.286 60.1595 28.1649 60.0283 28.0596 59.8977C25.9673 57.3186 24.8294 54.1775 24.0744 51.7308C22.037 45.0158 21.4648 37.9962 22.3812 30.8781C23.1702 24.9711 24.5603 20.2253 26.7629 15.8989C28.1007 13.2517 29.4341 11.5045 31.0482 10.2423C32.0832 9.43872 33.2192 9.0735 34.528 9.12584L39.9052 9.34086C40.6533 9.39447 41.2518 9.63162 41.6379 10.0498C42.1147 10.5664 42.1892 11.2722 42.169 11.7768C42.1683 11.7926 42.1677 11.8083 42.1671 11.8241C42.1614 12.7557 42.1166 13.6779 42.0618 14.6549C42.034 15.1513 42.0139 15.6559 41.9855 16.1681L41.8133 20.473C41.7465 22.1445 40.9429 22.8863 39.2714 22.8194C38.8141 22.8011 38.3644 22.791 37.9153 22.7652C36.5743 22.7274 35.3128 22.6769 34.0147 22.5539C33.9832 22.5527 33.9599 22.5438 33.9359 22.5508C32.5798 22.4966 32.0121 23.2636 31.681 23.8426C31.6639 23.8735 31.6469 23.9044 31.6299 23.9353C30.7569 25.8194 30.1855 27.8655 29.7535 30.5727L29.7528 30.5885C29.054 35.4251 29.0837 39.8171 29.8488 43.9857C29.946 44.5187 30.0917 45.022 30.2305 45.5014C30.3554 45.9328 30.4733 46.3403 30.5452 46.7143C30.5591 46.7623 30.5648 46.8178 30.5787 46.8657C30.6966 47.2732 30.8732 47.5961 31.123 47.8667C31.7512 48.5473 32.5712 48.5801 32.8393 48.5908L38.2322 48.8065C38.7684 48.8279 39.5133 48.9603 39.9902 49.4769C40.4594 49.9853 40.5257 50.6987 40.4815 51.2102C40.4809 51.226 40.4809 51.226 40.4803 51.2418L40.1328 59.9304C40.0761 61.547 39.2151 62.3418 37.5739 62.3077Z" fill="white"/>
</svg>
