<svg width="131" height="162" viewBox="0 0 131 162" fill="none" xmlns="http://www.w3.org/2000/svg">
<path d="M131 85.4228C131 129.53 121.262 162 77.0938 162C32.9256 162 -10.9093 122.069 2.43487 85.4228C18.6321 40.9423 36.8539 16.1748 77.0938 0C117.84 -5.38082e-05 131 41.3158 131 85.4228Z" fill="white" fill-opacity="0.3"/>
<path d="M121.098 37.5646L72.4804 17.3792C71.2625 16.8737 69.8936 16.8735 68.6759 17.3792L20.0587 37.5646C18.207 38.3335 17 40.1413 17 42.1462V66.6843C17 100.472 37.4215 130.864 68.7034 143.632C69.905 144.123 71.2511 144.123 72.4529 143.632C103.734 130.864 124.156 100.472 124.156 66.6843V42.1462C124.156 40.1413 122.95 38.3335 121.098 37.5646ZM114.234 66.6843C114.234 95.4069 97.3672 121.848 70.5782 133.651C44.5049 122.163 26.9219 96.1853 26.9219 66.6843V45.4582L70.5782 27.3324L114.234 45.4582V66.6843ZM65.0948 83.4061L86.418 62.0833C88.3552 60.146 91.4962 60.1458 93.4337 62.0833C95.3712 64.0208 95.371 67.1618 93.4335 69.099L68.6027 93.9298C66.665 95.8675 63.524 95.8668 61.587 93.9298L47.7226 80.0654C45.7851 78.1279 45.7851 74.9869 47.7226 73.0497C49.6601 71.1124 52.8011 71.1122 54.7384 73.0497L65.0948 83.4061Z" fill="white"/>
</svg>
