<svg width="134" height="162" viewBox="0 0 134 162" fill="none" xmlns="http://www.w3.org/2000/svg">
<path d="M134 85.4228C134 129.53 124.262 162 80.0938 162C35.9256 162 -7.90926 122.069 5.43487 85.4228C21.6321 40.9423 39.8539 16.1748 80.0938 0C120.84 -5.38082e-05 134 41.3158 134 85.4228Z" fill="white" fill-opacity="0.3"/>
<path d="M42.4902 48.2411C46.2719 48.2411 49.9686 47.1197 53.113 45.0187C56.2573 42.9177 58.7081 39.9315 60.1552 36.4377C61.6024 32.9438 61.9811 29.0993 61.2433 25.3903C60.5055 21.6813 58.6845 18.2743 56.0104 15.6003C53.3364 12.9262 49.9294 11.1052 46.2204 10.3674C42.5114 9.62963 38.6669 10.0083 35.1731 11.4555C31.6792 12.9027 28.693 15.3534 26.592 18.4977C24.491 21.6421 23.3696 25.3389 23.3696 29.1205C23.3753 34.1899 25.3915 39.05 28.9761 42.6346C32.5607 46.2192 37.4208 48.2355 42.4902 48.2411ZM27.7886 31.245H40.3657V43.8221C37.1939 43.361 34.256 41.8874 31.9896 39.6211C29.7233 37.3547 28.2498 34.4168 27.7886 31.245ZM44.6147 43.8221V31.245H57.1917C56.7306 34.4168 55.2571 37.3547 52.9907 39.6211C50.7243 41.8874 47.7864 43.361 44.6147 43.8221ZM57.1917 26.996H44.6147V14.419C47.7864 14.8801 50.7243 16.3537 52.9907 18.62C55.2571 20.8864 56.7306 23.8243 57.1917 26.996ZM40.3657 14.419V26.996H27.7886C28.2498 23.8243 29.7233 20.8864 31.9896 18.62C34.256 16.3537 37.1939 14.8801 40.3657 14.419Z" fill="white"/>
<path d="M16.9961 48.2411C17.5595 48.2411 18.0999 48.0172 18.4983 47.6188C18.8968 47.2204 19.1206 46.68 19.1206 46.1166V43.9921C19.1206 43.4286 18.8968 42.8882 18.4983 42.4898C18.0999 42.0914 17.5595 41.8676 16.9961 41.8676C16.4326 41.8676 15.8923 42.0914 15.4938 42.4898C15.0954 42.8882 14.8716 43.4286 14.8716 43.9921V46.1166C14.8716 46.68 15.0954 47.2204 15.4938 47.6188C15.8923 48.0172 16.4326 48.2411 16.9961 48.2411Z" fill="white"/>
<path d="M2.1245 60.988H14.5571C13.9899 65.9887 14.4667 71.0526 15.9571 75.8596H4.24901C3.68555 75.8596 3.14518 76.0834 2.74676 76.4818C2.34833 76.8802 2.1245 77.4206 2.1245 77.9841V92.8556C2.13704 102.822 5.83111 112.432 12.4973 119.84C19.1634 127.249 28.3316 131.933 38.2411 132.994V143.844C38.2411 144.407 38.4649 144.948 38.8633 145.346C39.2617 145.744 39.8021 145.968 40.3656 145.968H95.6027C96.1661 145.968 96.7065 145.744 97.1049 145.346C97.5033 144.948 97.7272 144.407 97.7272 143.844V132.994C107.637 131.933 116.805 127.249 123.471 119.84C130.137 112.432 133.831 102.822 133.844 92.8556C133.844 92.2921 133.62 91.7518 133.221 91.3533C132.823 90.9549 132.283 90.7311 131.719 90.7311C131.156 90.7311 130.615 90.9549 130.217 91.3533C129.819 91.7518 129.595 92.2921 129.595 92.8556C129.584 102.431 125.775 111.611 119.005 118.382C112.234 125.153 103.054 128.961 93.4782 128.972H42.4901C37.6964 128.976 32.9505 128.021 28.5321 126.161C32.0014 121.556 43.5205 109.123 68.1966 106.654C73.3916 106.128 78.5179 105.063 83.493 103.478C83.9842 103.275 84.3812 102.895 84.6058 102.413C84.8304 101.931 84.8662 101.382 84.7061 100.875C84.546 100.369 84.2017 99.9401 83.7411 99.6746C83.2805 99.4091 82.7372 99.326 82.2183 99.4416C77.5187 100.93 72.6772 101.927 67.7717 102.416C40.236 105.178 28.0435 119.374 24.6591 124.213C19.1146 121.066 14.5022 116.506 11.2906 110.999C8.07888 105.491 6.3824 99.2313 6.37351 92.8556V80.1086H114.048C107.175 86.8022 99.2024 92.2639 90.4784 96.2548C90.2242 96.3699 89.9952 96.5339 89.8044 96.7375C89.6136 96.9411 89.4648 97.1803 89.3665 97.4414C89.2682 97.7024 89.2222 97.9804 89.2313 98.2592C89.2403 98.5381 89.3042 98.8124 89.4193 99.0666C89.5344 99.3207 89.6984 99.5498 89.902 99.7405C90.1056 99.9313 90.3448 100.08 90.6059 100.178C90.867 100.277 91.1449 100.323 91.4237 100.314C91.7026 100.305 91.9769 100.241 92.2311 100.126C102.721 95.3847 112.147 88.5766 119.945 80.1086H129.595V84.3576C129.595 84.921 129.819 85.4614 130.217 85.8598C130.615 86.2583 131.156 86.4821 131.719 86.4821C132.283 86.4821 132.823 86.2583 133.221 85.8598C133.62 85.4614 133.844 84.921 133.844 84.3576V77.9841C133.844 77.4206 133.62 76.8802 133.221 76.4818C132.823 76.0834 132.283 75.8596 131.719 75.8596H110.759C112.668 74.2243 114.201 72.1953 115.252 69.9117C116.303 67.6281 116.847 65.1441 116.848 62.6303V55.6492C120.4 52.8023 133.844 41.2301 133.844 29.1205C133.844 28.557 133.62 28.0166 133.221 27.6182C132.823 27.2198 132.283 26.996 131.719 26.996C131.156 26.996 130.615 27.2198 130.217 27.6182C129.819 28.0166 129.595 28.557 129.595 29.1205C129.595 37.2892 121.583 45.749 116.848 50.0383V33.3695C116.848 32.9494 116.723 32.5387 116.49 32.1894C116.256 31.8401 115.924 31.5679 115.536 31.4071C115.148 31.2464 114.721 31.2043 114.309 31.2862C113.897 31.3682 113.518 31.5704 113.221 31.8675L98.7278 46.3608C97.1648 46.0073 95.5378 46.0543 93.9978 46.4973C92.4578 46.9404 91.0546 47.7652 89.9184 48.8953C88.7822 50.0253 87.9498 51.424 87.4984 52.9616C87.047 54.4992 86.9912 56.1259 87.3362 57.6908C77.0111 66.7943 69.2907 73.8859 67.1534 75.8596H65.7598C64.757 68.9037 61.6036 62.4357 56.7412 57.3615C56.3796 56.9994 55.8993 56.78 55.3887 56.7437C54.8782 56.7074 54.3717 56.8566 53.9624 57.1639C46.8007 62.5347 45.1308 71.7232 44.7399 75.8596H36.9961L19.1205 57.984V52.49C19.1205 51.9266 18.8967 51.3862 18.4983 50.9878C18.0999 50.5893 17.5595 50.3655 16.996 50.3655C16.4326 50.3655 15.8922 50.5893 15.4938 50.9878C15.0954 51.3862 14.8715 51.9266 14.8715 52.49V56.739H2.1245C1.56105 56.739 1.02067 56.9629 0.622253 57.3613C0.223831 57.7597 0 58.3001 0 58.8635C0 59.427 0.223831 59.9674 0.622253 60.3658C1.02067 60.7642 1.56105 60.988 2.1245 60.988ZM93.4782 133.221V141.719H42.4901V133.221H93.4782ZM94.6254 50.7713C95.5954 50.3683 96.6631 50.2619 97.6935 50.4657C98.7239 50.6694 99.6707 51.1741 100.414 51.9159C101.158 52.6578 101.665 53.6034 101.871 54.6333C102.077 55.6632 101.974 56.7312 101.573 57.7021C101.172 58.673 100.493 59.5034 99.6201 60.0881C98.7476 60.6729 97.7213 60.9858 96.6709 60.9873C95.6205 60.9888 94.5933 60.6789 93.7191 60.0967C92.8449 59.5144 92.1629 58.6861 91.7595 57.7163C91.4885 57.0725 91.3478 56.3814 91.3454 55.6829C91.343 54.9844 91.4789 54.2923 91.7454 53.6466C92.0118 53.001 92.4035 52.4144 92.8978 51.9209C93.3921 51.4274 93.9793 51.0367 94.6254 50.7713ZM89.2292 61.6806C90.6774 63.4596 92.717 64.6585 94.9758 65.0586C97.2345 65.4587 99.5618 65.0333 101.533 63.86C103.504 62.6867 104.988 60.8438 105.713 58.6676C106.438 56.4913 106.357 54.1269 105.484 52.0056C104.877 50.5801 103.928 49.3259 102.722 48.3536L112.599 38.498V62.6303C112.595 66.1377 111.2 69.5003 108.72 71.9804C106.239 74.4606 102.877 75.8556 99.3694 75.8596H73.4377C76.9283 72.6728 82.4966 67.6335 89.2292 61.6806ZM55.0247 61.8378C58.412 65.8378 60.6449 70.6855 61.4831 75.8596H49.0166C49.4368 70.6556 51.5466 65.7316 55.0247 61.8378ZM20.4845 75.8596C18.9933 71.9215 18.363 67.7097 18.6361 63.5077L30.988 75.8596H20.4845Z" fill="white"/>
<path d="M70.2426 49.4796C70.4839 49.5053 70.7265 49.5181 70.9692 49.5179C72.6785 49.5061 74.3307 48.9008 75.6431 47.8055C80.1832 44.6698 86.4143 40.9306 92.4415 37.3147C98.5622 33.6415 104.893 29.8429 109.554 26.6179C109.794 26.4519 109.997 26.2385 110.15 25.9908C110.304 25.7431 110.405 25.4665 110.447 25.1782C110.489 24.8899 110.471 24.596 110.395 24.3148C110.318 24.0336 110.185 23.7711 110.003 23.5437L106.65 19.3478C109.657 17.5723 113.116 16.7127 116.604 16.8746C120.091 17.0365 123.456 18.2128 126.285 20.2592C126.517 20.4198 126.779 20.5325 127.055 20.5908C127.331 20.6492 127.615 20.6519 127.893 20.599C128.17 20.546 128.433 20.4384 128.669 20.2824C128.904 20.1265 129.105 19.9252 129.262 19.6905C129.418 19.4557 129.526 19.1921 129.58 18.9151C129.633 18.6381 129.631 18.3532 129.573 18.0771C129.516 17.801 129.403 17.5391 129.243 17.3068C129.083 17.0745 128.878 16.8764 128.641 16.724C125.059 14.1868 120.806 12.7654 116.418 12.6388C112.03 12.5121 107.702 13.6859 103.98 16.0123L101.511 12.9212C101.333 12.6984 101.112 12.5138 100.861 12.3782C100.61 12.2427 100.335 12.1591 100.051 12.1323C99.7669 12.1055 99.4805 12.1362 99.2087 12.2225C98.9369 12.3087 98.6853 12.4488 98.4688 12.6344L87.8462 21.74C87.6261 21.9188 87.444 22.1399 87.3107 22.3901C87.1773 22.6404 87.0955 22.9149 87.0699 23.1973C87.0443 23.4797 87.0755 23.7644 87.1617 24.0346C87.2478 24.3048 87.3872 24.555 87.5716 24.7704C87.756 24.9859 87.9817 25.1622 88.2353 25.2891C88.4889 25.416 88.7654 25.4908 89.0484 25.5091C89.3314 25.5274 89.6152 25.4889 89.883 25.3958C90.1509 25.3028 90.3974 25.157 90.6081 24.9671L99.5608 17.2934L105.248 24.4041C100.937 27.2658 95.5178 30.5163 90.2554 33.6733C84.1347 37.3466 77.8037 41.1452 73.1426 44.3702C73.0831 44.4127 73.0257 44.4552 72.9705 44.5019C72.6621 44.7779 72.3001 44.9873 71.9071 45.117C71.5142 45.2468 71.0987 45.2941 70.6866 45.2561C70.3068 45.2441 69.9446 45.0929 69.669 44.8312C69.4741 44.4558 69.4322 44.0195 69.5521 43.6139C69.6511 43.1882 69.8417 42.7891 70.1106 42.4446C70.3796 42.1 70.7204 41.8183 71.1094 41.619C71.2446 41.5468 71.3714 41.4599 71.4876 41.3598L83.8798 30.7373C84.0999 30.5585 84.282 30.3374 84.4153 30.0871C84.5487 29.8368 84.6306 29.5624 84.6562 29.28C84.6818 28.9975 84.6505 28.7128 84.5644 28.4427C84.4782 28.1725 84.3388 27.9223 84.1544 27.7068C83.97 27.4914 83.7444 27.315 83.4907 27.1882C83.2371 27.0613 82.9606 26.9865 82.6777 26.9682C82.3947 26.9498 82.1109 26.9883 81.843 27.0814C81.5751 27.1745 81.3286 27.3203 81.1179 27.5101L68.885 37.9967C68.008 38.4975 67.2453 39.1762 66.646 39.9891C66.0467 40.8021 65.6241 41.7314 65.4051 42.7173C65.1842 43.4865 65.1399 44.2957 65.2757 45.0844C65.4114 45.8731 65.7237 46.6209 66.189 47.272C66.6544 47.9231 67.2609 48.4606 67.9632 48.8443C68.6655 49.2281 69.4454 49.4482 70.2447 49.4881L70.2426 49.4796Z" fill="white"/>
<path d="M23.3696 90.7312C22.8062 90.7312 22.2658 90.955 21.8674 91.3535C21.4689 91.7519 21.2451 92.2923 21.2451 92.8557C21.2451 93.4192 21.4689 93.9595 21.8674 94.358C22.2658 94.7564 22.8062 94.9802 23.3696 94.9802H25.4941C26.0576 94.9802 26.598 94.7564 26.9964 94.358C27.3948 93.9595 27.6186 93.4192 27.6186 92.8557C27.6186 92.2923 27.3948 91.7519 26.9964 91.3535C26.598 90.955 26.0576 90.7312 25.4941 90.7312H23.3696Z" fill="white"/>
<path d="M31.8677 90.7312C31.3042 90.7312 30.7638 90.955 30.3654 91.3535C29.967 91.7519 29.7432 92.2923 29.7432 92.8557C29.7432 93.4192 29.967 93.9595 30.3654 94.358C30.7638 94.7564 31.3042 94.9802 31.8677 94.9802H33.9922C34.5556 94.9802 35.096 94.7564 35.4944 94.358C35.8928 93.9595 36.1167 93.4192 36.1167 92.8557C36.1167 92.2923 35.8928 91.7519 35.4944 91.3535C35.096 90.955 34.5556 90.7312 33.9922 90.7312H31.8677Z" fill="white"/>
</svg>
