<svg width="72" height="72" viewBox="0 0 72 72" fill="none" xmlns="http://www.w3.org/2000/svg">
<path fill-rule="evenodd" clip-rule="evenodd" d="M0 0V72H72V0H0ZM55.8199 25.8344C55.8394 26.2732 55.8494 26.7144 55.8494 27.1573C55.8494 40.6716 45.5633 56.2542 26.753 56.2542C20.9778 56.2542 15.6023 54.5614 11.0768 51.6593C11.8768 51.7544 12.6907 51.8028 13.5164 51.8028C18.3076 51.8028 22.717 50.168 26.2172 47.4246C21.7421 47.3425 17.9652 44.3857 16.6636 40.3227C17.2884 40.4425 17.9291 40.5067 18.588 40.5067C19.5207 40.5067 20.4243 40.3811 21.2824 40.1478C16.6043 39.208 13.079 35.0751 13.079 30.1204C13.079 30.0772 13.079 30.0343 13.0799 29.9916C14.4585 30.7575 16.0353 31.2176 17.7118 31.2708C14.9676 29.4369 13.1627 26.3066 13.1627 22.759C13.1627 20.8846 13.667 19.1281 14.5475 17.6174C19.5911 23.8048 27.1266 27.8759 35.6258 28.3028C35.4512 27.554 35.3604 26.7734 35.3604 25.9721C35.3604 20.3247 39.9396 15.746 45.5869 15.746C48.5285 15.746 51.1863 16.9877 53.0517 18.9751C55.3808 18.517 57.5696 17.6655 59.5456 16.4937C58.7822 18.8819 57.1607 20.8855 55.0491 22.1515C57.118 21.9041 59.0887 21.3543 60.9228 20.5409C59.5521 22.5915 57.8184 24.3928 55.8199 25.8344Z" fill="white"/>
</svg>
